<?xml version="1.0" encoding="UTF-8"?>
<!DOCTYPE svg PUBLIC "-//W3C//DTD SVG 1.1//EN" "http://www.w3.org/Graphics/SVG/1.1/DTD/svg11.dtd">
<!-- Creator: CorelDRAW X6 -->
<svg xmlns="http://www.w3.org/2000/svg" xml:space="preserve" width="1.375in" height="1.54166in" version="1.1" style="shape-rendering:geometricPrecision; text-rendering:geometricPrecision; image-rendering:optimizeQuality; fill-rule:evenodd; clip-rule:evenodd"
viewBox="0 0 1375 1542"
 xmlns:xlink="http://www.w3.org/1999/xlink">
 <defs>
  <style type="text/css">
   <![CDATA[
    .fil0 {fill:#2A2A2C;fill-rule:nonzero}
   ]]>
  </style>
 </defs>
 <g id="Layer_x0020_1">
  <metadata id="CorelCorpID_0Corel-Layer"/>
  <path class="fil0" d="M873 726c-71,0 -126,-61 -126,-139 0,-76 53,-141 126,-141 66,0 122,62 122,140 0,70 -48,140 -122,140zm-173 -301c-28,0 -60,-25 -60,-63 0,-38 32,-63 60,-63 28,0 59,25 59,63 0,38 -30,63 -59,63zm-171 301c-74,0 -121,-70 -122,-140 0,-78 56,-140 122,-140 73,0 126,64 126,141 0,78 -55,139 -126,139zm347 -368c-9,0 -20,1 -29,4l-2 0c3,-79 -61,-152 -145,-152 -85,0 -148,73 -145,152 -8,-3 -19,-4 -29,-4 -130,0 -216,118 -216,228 0,120 82,232 218,232 44,0 94,-16 127,-46l0 323 -64 0 0 -43c0,-7 -6,-15 -14,-15l-39 0c-11,0 -19,9 -19,18l0 88c0,9 6,20 17,20l119 0 0 49 -117 0c-11,0 -19,9 -19,18l0 89c0,8 6,20 17,20l39 0c11,0 16,-12 16,-20l0 -40 64 0 0 33c0,14 11,25 25,25 11,0 17,0 19,0 1,0 2,0 2,0 3,0 8,0 19,0 15,0 26,-11 26,-25l0 -543c34,32 84,48 128,48 136,0 218,-112 218,-232 0,-110 -86,-228 -216,-228z"/>
 </g>
</svg>
