<?xml version="1.0" encoding="UTF-8"?>
<!DOCTYPE svg PUBLIC "-//W3C//DTD SVG 1.1//EN" "http://www.w3.org/Graphics/SVG/1.1/DTD/svg11.dtd">
<!-- Creator: CorelDRAW X6 -->
<svg xmlns="http://www.w3.org/2000/svg" xml:space="preserve" width="16.5278in" height="11.8056in" version="1.1" style="shape-rendering:geometricPrecision; text-rendering:geometricPrecision; image-rendering:optimizeQuality; fill-rule:evenodd; clip-rule:evenodd"
viewBox="0 0 16528 11806"
 xmlns:xlink="http://www.w3.org/1999/xlink">
 <defs>
  <style type="text/css">
   <![CDATA[
    .fil0 {fill:#212123;fill-rule:nonzero}
   ]]>
  </style>
 </defs>
 <g id="Layer_x0020_1">
  <metadata id="CorelCorpID_0Corel-Layer"/>
  <path class="fil0" d="M9381 7208l568 0 0 -1140 884 1140 503 0 0 -2079 -568 0 0 1099 -851 -1099 -535 0 0 2079zm-1434 -478c-313,0 -529,-261 -529,-561 0,-306 210,-561 523,-561 316,0 532,261 532,561 0,306 -210,561 -526,561zm-6 520c639,0 1117,-484 1117,-1081 0,-603 -473,-1081 -1112,-1081 -638,0 -1117,484 -1117,1081 0,603 473,1081 1112,1081zm-2785 -42l1576 0 0 -505 -1002 0 0 -1574 -574 0 0 2079z"/>
  <path class="fil0" d="M10009 2689l-2439 631 0 -610 -2275 0 0 1207 -1286 336 0 4057 8472 0 0 -4019 -2472 -1603zm-3007 589l0 775 2907 -753 2004 1300 0 3144 -7337 0 0 -3052 1286 -336 0 -1077 1140 0z"/>
 </g>
</svg>
